<?xml version="1.0" encoding="UTF-8"?>
<svg width="25px" height="30px" viewBox="0 0 25 30" version="1.1" xmlns="http://www.w3.org/2000/svg" xmlns:xlink="http://www.w3.org/1999/xlink">
    <title>copy</title>
    <g id="Page-1" stroke="none" stroke-width="1" fill="none" fill-rule="evenodd">
        <g id="Desktop" transform="translate(-337.000000, -196.000000)" fill="#333333" fill-rule="nonzero">
            <g id="copy" transform="translate(337.000000, 196.000000)">
                <path d="M15.7192575,30 L4.64037123,30 C2.08159623,30 0,27.8972626 0,25.3125 L0,9.43359375 C0,6.84883119 2.08159623,4.74609375 4.64037123,4.74609375 L15.7192575,4.74609375 C18.2780325,4.74609375 20.3596288,6.84883119 20.3596288,9.43359375 L20.3596288,25.3125 C20.3596288,27.8972626 18.2780325,30 15.7192575,30 Z M4.64037123,7.08984375 C3.36109698,7.08984375 2.32018561,8.14132688 2.32018561,9.43359375 L2.32018561,25.3125 C2.32018561,26.6047669 3.36109698,27.65625 4.64037123,27.65625 L15.7192575,27.65625 C16.9985318,27.65625 18.0394432,26.6047669 18.0394432,25.3125 L18.0394432,9.43359375 C18.0394432,8.14132688 16.9985318,7.08984375 15.7192575,7.08984375 L4.64037123,7.08984375 Z M25,22.3828125 L25,4.6875 C25,2.10273744 22.9184038,0 20.3596288,0 L7.48259861,0 C6.8418286,0 6.3225058,0.524597168 6.3225058,1.171875 C6.3225058,1.81915283 6.8418286,2.34375 7.48259861,2.34375 L20.3596288,2.34375 C21.638903,2.34375 22.6798144,3.39523313 22.6798144,4.6875 L22.6798144,22.3828125 C22.6798144,23.0300903 23.1991372,23.5546875 23.8399072,23.5546875 C24.4806772,23.5546875 25,23.0300903 25,22.3828125 Z" id="Shape"></path>
            </g>
        </g>
    </g>
</svg>